<?xml version="1.0" encoding="iso-8859-1"?>
<!-- Generator: Adobe Illustrator 19.0.0, SVG Export Plug-In . SVG Version: 6.00 Build 0)  -->
<svg version="1.1" id="Capa_1" xmlns="http://www.w3.org/2000/svg" xmlns:xlink="http://www.w3.org/1999/xlink" x="0px" y="0px"
	 viewBox="0 0 512 512" style="enable-background:new 0 0 512 512;" xml:space="preserve">
<path style="fill:#E24B4B;" d="M512,256c0,141.44-114.72,256-256,256C114.56,512,0,397.44,0,256C0,114.72,114.56,0,256,0
	C397.28,0,512,114.72,512,256z"/>
<path style="fill:#D03F3F;" d="M512,256c0,141.44-114.72,256-256,256c-80.64,0-152.64-37.28-199.36-95.52
	c43.84,35.2,99.36,56.16,160,56.16c141.28,0,256-114.56,256-256c0-60.64-20.96-116.16-56.32-160C474.72,103.52,512,175.36,512,256z"
	/>
<g>
	<path style="fill:#3E4347;" d="M203.472,205.552c-3.232,0-6.288-1.568-8.16-4.224C177.6,176.336,153.424,160.4,119.2,151.216
		c-5.328-1.44-8.496-6.928-7.056-12.256c1.44-5.344,6.896-8.464,12.256-7.056c33.072,8.896,58.832,24.144,78.288,46.48
		l14.032-21.696c2.976-4.64,9.2-5.968,13.808-2.976c4.64,3.008,5.968,9.184,2.976,13.824l-21.632,33.44
		c-1.792,2.784-4.864,4.496-8.176,4.576C203.6,205.552,203.52,205.552,203.472,205.552z"/>
	<ellipse style="fill:#3E4347;" cx="162.208" cy="250.544" rx="40.416" ry="45.952"/>
	<path style="fill:#3E4347;" d="M308.528,205.552c-0.08,0-0.144,0-0.224,0c-3.312-0.064-6.368-1.792-8.192-4.576l-21.616-33.44
		c-2.992-4.64-1.664-10.832,2.976-13.824c4.624-3.008,10.832-1.664,13.824,2.976l14,21.68c19.472-22.32,45.216-37.584,78.304-46.464
		c5.36-1.456,10.816,1.712,12.256,7.056c1.44,5.328-1.728,10.816-7.056,12.256c-34.224,9.2-58.4,25.12-76.128,50.128
		C314.816,203.984,311.76,205.552,308.528,205.552z"/>
	<ellipse style="fill:#3E4347;" cx="349.792" cy="250.544" rx="40.416" ry="45.952"/>
	<path style="fill:#3E4347;" d="M329.616,401.424c-18.864-19.728-45.84-31.024-74.048-31.024s-55.184,11.312-74.048,31.024
		c-6.128,6.4-16.272,6.592-22.624,0.496c-6.384-6.112-6.608-16.24-0.496-22.624c24.88-26,60.288-40.896,97.168-40.896
		c36.896,0,72.304,14.912,97.168,40.896c6.112,6.384,5.888,16.512-0.496,22.624C345.888,408.016,335.744,407.824,329.616,401.424z"
		/>
</g>
<g>
	<path style="fill:#5A5F63;" d="M372.272,244.224c-3.456,1.392-7.856-1.504-9.936-6.496c-1.952-5.008-0.848-10.16,2.608-11.552
		c3.584-1.408,8,1.488,9.936,6.496C376.96,237.648,375.728,242.832,372.272,244.224z"/>
	<path style="fill:#5A5F63;" d="M183.024,244.224c-3.456,1.392-7.856-1.504-9.936-6.496c-1.936-5.008-0.848-10.16,2.624-11.552
		c3.584-1.408,8,1.488,9.936,6.496C187.712,237.648,186.48,242.832,183.024,244.224z"/>
</g>
<g>
</g>
<g>
</g>
<g>
</g>
<g>
</g>
<g>
</g>
<g>
</g>
<g>
</g>
<g>
</g>
<g>
</g>
<g>
</g>
<g>
</g>
<g>
</g>
<g>
</g>
<g>
</g>
<g>
</g>
</svg>
